<?xml version="1.0" encoding="utf-8"?>
<!-- Generator: Adobe Illustrator 27.4.0, SVG Export Plug-In . SVG Version: 6.00 Build 0)  -->
<svg version="1.1" id="Layer_2_00000098913219144126800840000006026964288588790418_"
	 xmlns="http://www.w3.org/2000/svg" xmlns:xlink="http://www.w3.org/1999/xlink" x="0px" y="0px" viewBox="0 0 355.5 355.5"
	 style="enable-background:new 0 0 355.5 355.5;" xml:space="preserve">
<style type="text/css">
	.st0{fill:#FFFFFF;}
</style>
<rect class="st0" width="355.5" height="355.5"/>
<g>
	<path d="M333.1,111.6c-104.5-21.7-206.7-21.5-310.6,0c-0.6-26.5-1.3-51.9-1.8-77.3c-0.1-5.1,2.8-8.1,8-8.9
		c26.7-4.1,53.3-9.1,80.1-12.1c38.6-4.3,77.4-5.4,116-1.6c33.8,3.3,67.4,9,101.1,13.5c5.4,0.7,8.9,3.3,8.8,9
		C334.4,59.6,333.7,85,333.1,111.6L333.1,111.6z M297.5,93.2c-1.6-3.8-2.5-6.1-3.6-8.4c-5.8-12.8-12.4-25.3-17.1-38.4
		c-4.6-13-14.8-17.9-26.4-19.8c-22.6-3.8-45-1.2-67.1,4.8c-3.5,1-7.7,1-11.2,0c-19.8-5.6-39.9-7.5-60.2-5.9
		c-15.7,1.3-28.7,6.8-34.5,23.9C73.2,61.6,67,73,61.6,84.9c-1,2.3-2,4.6-3.6,8.4C138.4,80.6,217.3,80.8,297.5,93.2L297.5,93.2z"/>
	<path d="M170.5,111.7v234.5c-11.9-8.3-22.9-15.1-32.9-23.1C77.8,275.5,43,213,28.1,138.8c-0.3-1.3-0.3-2.6-0.7-3.8
		c-2.3-6.4-0.2-8.8,6.7-10.1c44-8.6,88.3-13.3,133.1-13.8C167.9,111.1,168.7,111.4,170.5,111.7L170.5,111.7z M162.7,189.3
		c0-29.9-23.9-54.1-53.7-54.3c-29.8-0.2-54.8,24.7-54.7,54.4c0.1,29.3,25.1,54.2,54.3,54.1C138.3,243.5,162.7,219,162.7,189.3
		L162.7,189.3z"/>
	<path d="M244.2,247.8c-9.8-5.9-19.5-11.8-30.5-18.5c0,4.2,0,7.3,0,10.3c0,26.5-0.2,53.1,0.1,79.6c0,5.6-1.6,9.2-6.4,12
		c-7.1,4.2-13.9,9-22,14.3V210.1c9.4,6.1,18.3,11.8,28.6,18.4c0-14.1,0.1-26.7,0-39.4c-0.1-9.1-0.5-18.1-0.8-27.1l0,0
		c6.8,4,13.7,8.1,20.5,12.2c2.6,1.6,5.2,3.3,9.3,6v-66.4c9.3,0.9,17.2,1.4,25.1,2.5c1.4,0.2,3.6,2.5,3.6,3.9
		c0.2,25.8,0.2,51.7,0.2,79c-10-6.5-18.5-12.1-27.7-18c-0.5,1.4-1.1,2.3-1.1,3.1c-0.1,20-0.1,40,0,60
		C242.9,245.4,243.7,246.6,244.2,247.8L244.2,247.8L244.2,247.8z"/>
	<path d="M244.1,247.8c8.7,6.3,17.3,12.6,27.7,20.2v-68.2c10.5,7,19.5,12.9,29.1,19.2c-14.2,30-33.1,56.5-56.7,81
		C244.2,281.6,244.2,264.7,244.1,247.8L244.1,247.8L244.1,247.8z"/>
	<path d="M301.6,214.8v-93.4c8.3,1.5,16.2,2.7,23.9,4.5c1.5,0.3,3.6,3.3,3.3,4.7C323.9,159.9,315.4,188.2,301.6,214.8L301.6,214.8z"
		/>
	<path d="M213.1,162.1c-5.2-4-10-9-15.9-11.9c-10.6-5.2-14.6-12.8-12.7-24.3c0.7-4.5,0.1-9.2,0.1-14.4h28.5
		C213.1,128.6,213.1,145.3,213.1,162.1L213.1,162.1L213.1,162.1z"/>
	<path class="st0" d="M297.5,93.2c-80.3-12.4-159.1-12.6-239.4,0.1c1.6-3.8,2.5-6.1,3.6-8.4C67,73.1,73.2,61.6,77.4,49.3
		c5.8-17.1,18.8-22.6,34.5-23.9c20.3-1.7,40.5,0.3,60.2,5.9c3.5,1,7.7,1,11.2,0c22.1-5.9,44.5-8.6,67.1-4.8
		c11.6,2,21.8,6.8,26.4,19.8c4.7,13.2,11.3,25.7,17.1,38.4C295,87.2,295.9,89.5,297.5,93.2L297.5,93.2z M78.9,76.3
		c30.5-0.9,60.5-1.7,90.6-2.5c-23.4-9.4-47.6-12.8-73.5-9c3.5-9.7,6.4-17.9,9.4-26c-0.5-0.5-1-1-1.6-1.6c-3.9,2.9-9.3,5-11.4,8.9
		C87,56.1,83.1,66.8,78.9,76.3L78.9,76.3z M186.1,73.7c30,0.8,60.1,1.6,90.8,2.5c-9.5-11.7-6.8-32-27.6-39
		c3.5,9.9,6.5,18.2,9.8,27.7C233,60.8,209.2,64.3,186.1,73.7L186.1,73.7z"/>
	<path class="st0" d="M162.7,189.3c0,29.7-24.4,54.2-54,54.2c-29.3,0-54.2-24.8-54.3-54.1c-0.1-29.7,24.9-54.7,54.7-54.4
		C138.9,135.1,162.8,159.4,162.7,189.3L162.7,189.3z M62.8,183.9H80c0.8-4.9,1.5-9.4,2.2-13.9c-4.5-1.4-8.4-2.6-13.3-4.1
		C66.9,171.8,65,177.5,62.8,183.9L62.8,183.9z M137.6,184h17.1c-2.2-6.3-4.2-12.2-6.4-18.2c-5.1,1.7-9,3-13.1,4.4
		C136,175,136.8,179.3,137.6,184L137.6,184z M63.1,194.8c1.9,5.8,3.8,11.5,5.8,17.5c5.2-1.6,9.2-2.9,13.1-4.2
		C80.1,192.2,79.4,191.7,63.1,194.8L63.1,194.8z M148.6,212.3c2-6.2,3.9-11.9,6.1-18.3h-17c-0.8,4.8-1.5,9.3-2.3,14
		C139.9,209.6,143.8,210.8,148.6,212.3L148.6,212.3z M113.1,183.9h15.2c-0.8-6.1,1.1-12.8-9.1-11.9
		C110.4,172.9,113.2,178.4,113.1,183.9z M113.4,194c-1.1,6.9-1.7,12,7.3,12.1c10.2,0.2,5.9-7.2,7.8-12.1H113.4L113.4,194z
		 M104.1,172.9H90.8c-0.7,3.7-1.3,7.2-2,11.1h15.3V172.9z M103.8,205.2v-11.1h-15c0.8,4.2,1.5,7.9,2.3,12.2
		C95.6,205.9,99.7,205.6,103.8,205.2L103.8,205.2z M93.7,232.9c0.3-0.6,0.7-1.1,1.1-1.7c-1.7-2.6-3.4-5.1-5-7.7
		c-3.4-5.5-8.4-6.4-14.9-2.6C81.6,225.1,87.7,229,93.7,232.9L93.7,232.9z M94.4,147c-0.4-0.5-0.9-1-1.3-1.6c-6,4-12,8-19,12.7
		C81.5,160.8,88.3,157.2,94.4,147L94.4,147z M143.3,157.6c-7.4-4.6-13.4-8.4-19.5-12.1C129.5,156.9,135.9,160.9,143.3,157.6z
		 M144.1,219.7c-5.9-1.5-9.1-2.3-12.3-3.1c-3.1,5.2-5.7,9.5-8.3,13.9c0.4,0.6,0.9,1.1,1.3,1.7C130.6,228.5,136.4,224.8,144.1,219.7
		L144.1,219.7z M113.2,164.1c3.2-0.3,5.9-0.5,10.2-1c-3.8-5.3-6.5-9-10.2-14.2V164.1z M123.3,214.6h-10.1v12c0.5,0.2,1,0.4,1.4,0.7
		C117.3,223.5,119.9,219.7,123.3,214.6z M104,214.2c-3.4,0.3-5.9,0.4-9.6,0.7c3.3,4.7,5.9,8.5,9.6,14V214.2L104,214.2z M103.7,164.1
		v-15c-3.7,5.7-6.1,9.4-9.2,14.1C98.4,163.6,100.8,163.8,103.7,164.1z"/>
	<path d="M78.9,76.3C83,66.8,87,56.1,92.4,46c2.1-3.9,7.5-6,11.4-8.9c0.5,0.5,1,1,1.6,1.6c-2.9,8.1-5.9,16.3-9.4,26
		c25.9-3.7,50.1-0.4,73.5,9C139.4,74.5,109.3,75.4,78.9,76.3L78.9,76.3z"/>
	<path d="M186.1,73.7c23.1-9.4,46.9-13,73.1-8.8c-3.4-9.4-6.3-17.8-9.8-27.7c20.7,6.9,18.1,27.3,27.6,39
		C246.2,75.3,216.2,74.5,186.1,73.7L186.1,73.7z"/>
	<path d="M62.8,183.9c2.2-6.5,4.1-12.2,6.1-18.1c4.9,1.5,8.8,2.7,13.3,4.1c-0.7,4.6-1.4,9-2.2,13.9L62.8,183.9L62.8,183.9z"/>
	<path d="M137.6,184c-0.8-4.8-1.6-9.1-2.4-13.8c4.2-1.4,8-2.7,13.1-4.4c2.1,6,4.2,11.9,6.4,18.2L137.6,184L137.6,184z"/>
	<path d="M63.1,194.8c16.3-3.2,16.9-2.6,18.9,13.3c-3.9,1.3-8,2.6-13.1,4.2C66.9,206.3,65,200.7,63.1,194.8L63.1,194.8z"/>
	<path d="M148.6,212.3c-4.9-1.6-8.7-2.8-13.3-4.2c0.8-4.8,1.5-9.2,2.3-14h17C152.5,200.4,150.6,206.1,148.6,212.3L148.6,212.3z"/>
	<path d="M113.1,184c0-5.6-2.7-11,6.2-11.9c10.1-1,8.2,5.8,9.1,11.9H113.1z"/>
	<path d="M113.4,194h15.1c-2,5,2.3,12.4-7.8,12.1C111.7,206,112.3,201,113.4,194L113.4,194z"/>
	<path d="M104,172.9V184H88.8c0.7-3.9,1.3-7.4,2-11.1H104z"/>
	<path d="M103.8,205.3c-4.2,0.3-8.2,0.7-12.7,1c-0.8-4.3-1.5-7.9-2.3-12.2h15L103.8,205.3L103.8,205.3z"/>
	<path d="M93.7,232.9c-6.1-3.9-12.2-7.8-18.8-12c6.5-3.8,11.5-2.9,14.9,2.6c1.6,2.6,3.3,5.1,5,7.7C94.3,231.8,94,232.3,93.7,232.9
		L93.7,232.9z"/>
	<path d="M94.4,147c-6.2,10.2-12.9,13.9-20.3,11.1c7-4.7,13-8.7,19-12.7C93.5,145.9,94,146.5,94.4,147L94.4,147z"/>
	<path d="M143.3,157.6c-7.3,3.4-13.8-0.7-19.5-12.1C129.8,149.2,135.9,153,143.3,157.6z"/>
	<path d="M144.1,219.8c-7.8,5-13.5,8.8-19.3,12.5c-0.4-0.6-0.9-1.1-1.3-1.7c2.6-4.4,5.2-8.8,8.3-13.9
		C134.9,217.5,138.2,218.3,144.1,219.8L144.1,219.8z"/>
	<path d="M113.1,164.1V149c3.7,5.2,6.4,8.9,10.2,14.2C119,163.5,116.3,163.8,113.1,164.1z"/>
	<path d="M123.3,214.6c-3.5,5.1-6,8.9-8.6,12.7c-0.5-0.2-1-0.4-1.4-0.7v-12H123.3z"/>
	<path d="M104,214.2v14.6c-3.8-5.5-6.4-9.2-9.6-14C98.2,214.6,100.6,214.4,104,214.2L104,214.2z"/>
	<path d="M103.7,164.2c-2.9-0.3-5.3-0.5-9.2-0.9c3.1-4.7,5.5-8.4,9.2-14.1V164.2z"/>
</g>
</svg>
