<?xml version="1.0" encoding="utf-8"?>
<!-- Generator: Adobe Illustrator 26.5.0, SVG Export Plug-In . SVG Version: 6.00 Build 0)  -->
<svg version="1.1" id="Layer_1" xmlns="http://www.w3.org/2000/svg" xmlns:xlink="http://www.w3.org/1999/xlink" x="0px" y="0px"
	 viewBox="0 0 512 512" style="enable-background:new 0 0 512 512;" xml:space="preserve">
<g id="XMLID_1_">
	<path id="XMLID_36_" d="M239.74,494.1c-0.28-9.82-0.56-23.84-0.84-31.13l-0.42-13.18h9.26c5.05,0,15.29-0.14,22.86-0.42l13.6-0.42
		v3.93v3.93h-10.52c-5.75,0-14.02,0.14-18.23,0.42l-7.71,0.42v9.26v9.26l16.97-0.42l16.97-0.42v3.79v3.79l-16.69,0.42l-16.69,0.42
		v10.24v10.24l18.93-0.42l18.93-0.42v3.93v3.93h-11.08c-6.03,0-16.41,0.14-23,0.42l-11.92,0.42L239.74,494.1z M293.59,502.79
		c0.84-8.41,4.49-41.51,5.89-53.43c0.28-2.52,0.7-4.77,0.84-4.91c0.14-0.14,2.24-0.7,4.63-1.26c3.93-0.84,4.35-0.84,5.19,0.14
		c0.56,0.56,4.35,6.03,8.41,12.2c4.21,6.17,9.68,14.16,12.2,17.95c2.52,3.65,7.15,10.38,10.1,14.86c3.65,5.33,5.33,8.27,4.77,8.41
		c-0.42,0.14-2.1,0.56-3.65,0.98c-1.54,0.42-3.09,0.84-3.65,0.98c-0.56,0.14-2.66-2.52-6.17-7.71c-4.91-7.43-5.33-7.99-7.01-7.57
		c-0.98,0.28-4.21,1.12-7.43,1.96c-3.23,0.84-7.85,1.96-10.38,2.52l-4.63,0.98l-0.42,6.73c-0.28,3.65-0.7,7.99-0.84,9.54l-0.42,2.94
		l-4.21,0.98l-4.21,0.98L293.59,502.79z M314.06,478.39c5.61-1.4,7.71-2.24,7.43-2.8c-0.28-0.42-3.65-5.75-7.43-11.64
		c-8.27-12.76-7.29-13.04-8.98,3.79c-1.26,13.46-1.26,13.6,0,13.04C305.65,480.5,309.71,479.52,314.06,478.39z M213.37,508.82
		l-3.93-0.98l3.51-13.74c1.96-7.57,3.37-13.88,3.09-14.02c-0.28-0.28-30.71-7.85-30.85-7.71c0,0.14-1.54,6.31-3.51,13.88
		l-3.37,13.74l-3.93-0.84c-2.1-0.56-4.07-0.98-4.07-1.12c-0.42-0.42,14.16-58.9,14.86-59.46c0.14-0.14,2.1,0.14,4.21,0.56
		c3.51,0.7,3.93,0.98,3.65,2.1c-0.14,0.7-0.84,3.37-1.4,5.75c-0.56,2.52-1.82,7.43-2.8,11.22l-1.82,6.73l15.29,3.79
		c8.41,2.1,15.57,3.51,15.85,3.23s1.68-5.61,3.23-11.92s2.94-11.5,3.37-11.64c0.84-0.56,7.57,1.54,7.57,2.38
		c0,0.42-2.1,9.54-4.77,20.19c-2.66,10.8-5.89,23.84-7.15,29.31s-2.52,9.68-2.66,9.68C217.44,509.67,215.48,509.25,213.37,508.82z
		 M340.71,464.79c-7.43-15.01-13.6-27.35-13.6-27.63c0-0.28,1.68-1.26,3.65-2.24l3.65-1.68l12.06,24.12
		c6.59,13.32,12.2,24.12,12.2,24.26c0.14,0.14,6.17-2.8,13.46-6.59c7.29-3.65,13.74-6.73,14.02-6.73c0.98,0,3.65,5.75,3.09,6.45
		c-0.7,0.7-33.94,17.25-34.64,17.25C354.45,491.86,348.14,479.66,340.71,464.79z M379.83,448.38c-7.99-12.06-14.72-22.02-15.01-22.3
		c-0.28-0.28-4.35,2.1-8.98,5.33l-8.55,5.75l-1.12-1.4c-0.56-0.84-1.54-2.24-2.1-3.23l-0.98-1.82l20.9-13.88
		c11.64-7.71,21.04-13.6,21.32-13.32s1.26,1.68,2.24,3.09l1.68,2.52l-8.13,5.33c-4.49,2.94-8.41,5.61-8.69,5.89
		s5.75,9.96,13.46,21.46c7.71,11.5,14.44,21.74,15.01,22.58c0.98,1.54,0.98,1.68-2.1,3.65c-1.68,1.12-3.37,2.1-3.65,2.1
		C394.7,470.26,387.97,460.3,379.83,448.38z M97.54,457.64c-1.68-1.26-3.23-2.38-3.37-2.66c-0.14-0.28,1.96-3.65,4.63-7.43
		c2.66-3.79,6.45-9.26,8.41-12.06c1.96-2.8,5.47-7.85,7.71-11.22c2.38-3.37,6.03-8.83,8.41-12.2c2.24-3.37,4.49-6.45,4.91-6.87
		c0.84-0.84,5.19,1.82,23.42,14.58c3.37,2.38,7.57,5.33,9.4,6.45l3.37,2.24l-1.96,2.94c-1.82,2.8-3.23,3.65-3.93,2.38
		c-0.14-0.28-4.07-3.09-8.55-6.03c-4.49-3.09-10.38-7.15-13.04-8.98l-4.91-3.51l-1.54,2.1c-0.84,1.12-3.23,4.63-5.47,7.57
		l-3.93,5.61l4.91,3.51c2.66,1.82,8.27,5.75,12.34,8.41c4.07,2.8,7.43,5.05,7.57,5.19c0.42,0.28-3.79,6.03-4.35,6.03
		c-0.28,0-3.51-2.1-7.15-4.63c-3.65-2.52-7.99-5.47-9.54-6.59c-1.54-0.98-3.93-2.8-5.33-3.79c-2.94-2.24-2.38-2.66-8.41,6.31
		c-2.38,3.51-5.75,8.27-7.29,10.66l-2.94,4.21L97.54,457.64z M431.3,442.21c-0.14-0.28-2.52-2.52-5.33-4.91
		c-2.8-2.52-8.83-7.71-13.46-11.78c-4.63-4.07-8.69-7.57-8.98-7.99c-0.42-0.42-4.49-3.93-9.12-7.99c-4.63-4.07-8.41-7.43-8.41-7.57
		c0-0.14,1.12-1.68,2.66-3.37l2.66-3.09l1.96,1.68c1.12,0.84,3.23,2.8,4.91,4.35c1.54,1.4,5.05,4.49,7.57,6.73l4.77,4.07l3.23-3.51
		c1.68-1.96,5.61-6.31,8.69-9.82s6.31-7.29,7.29-8.27c0.98-1.12,1.82-2.1,1.82-2.24c0-0.14-4.07-3.93-8.98-8.27
		c-4.91-4.35-9.12-8.13-9.4-8.41c-0.14-0.28,0.84-1.96,2.38-3.65l2.8-3.09l7.99,7.01c4.35,3.93,8.13,7.15,8.27,7.43
		c0.14,0.14,2.52,2.24,5.19,4.49c2.66,2.24,5.19,4.49,5.47,4.91c0.42,0.42,4.91,4.35,10.1,8.83l9.26,8.13l-1.82,2.38
		c-0.98,1.26-2.38,2.66-2.8,3.23c-1.12,0.84-1.26,0.84-9.96-6.87c-4.91-4.35-8.98-7.85-11.36-9.82c-1.4-1.12-1.4-0.98-11.5,10.52
		c-5.61,6.31-10.24,11.78-10.38,12.06c-0.14,0.28,3.23,3.51,7.29,7.15c4.07,3.65,7.85,6.87,8.27,7.29c0.42,0.42,1.82,1.54,3.09,2.66
		l2.38,2.1l-2.66,3.23C432.56,442.63,431.72,443.19,431.3,442.21z M73,432.68c-4.21-1.54-9.26-4.91-12.9-8.98
		c-11.5-12.9-10.52-29.17,2.52-42.21c13.46-13.46,30.85-15.01,43.19-3.79c9.54,8.69,12.9,20.19,9.26,31.27
		c-3.37,10.38-13.04,19.63-24.26,23.42C85.76,434.08,77.34,434.22,73,432.68z M91.23,422.86c5.47-2.66,12.2-8.98,14.72-14.02
		c1.68-3.09,1.82-4.21,1.82-9.54c0-5.19-0.28-6.45-1.54-9.12c-2.94-5.75-9.4-10.52-15.71-11.5c-9.4-1.54-22.72,6.73-27.91,17.25
		c-1.82,3.79-2.1,5.05-2.1,9.26c0,7.99,4.35,14.72,11.92,18.51c3.65,1.82,4.35,1.96,9.12,1.82
		C85.76,425.1,87.44,424.68,91.23,422.86z M14.38,341.52l-1.12-4.91l2.1-2.24c1.12-1.26,2.52-2.8,3.09-3.37
		c0.56-0.56,4.21-4.63,8.27-8.98s9.4-10.1,11.78-12.76c2.38-2.66,6.03-6.59,7.99-8.69c6.87-7.43,7.01-6.87-1.96-4.49
		c-4.35,1.12-13.88,3.79-21.04,5.75c-18.79,5.19-17.95,5.05-18.65,4.35c-0.28-0.28-0.98-2.1-1.54-3.79l-0.84-3.23l4.91-1.4
		c2.66-0.84,10.52-2.94,17.39-4.77c25.94-7.01,35.62-9.68,36.6-10.1c0.84-0.28,1.26,0.56,2.24,4.35l1.12,4.77l-5.05,5.61
		c-2.8,3.09-5.47,6.03-6.03,6.59c-1.54,1.54-6.03,6.59-13.18,14.3c-3.51,3.93-7.57,8.27-9.12,9.96c-1.4,1.54-3.37,3.65-4.35,4.63
		c-1.68,1.68-2.1,2.8-1.12,2.1c0.28-0.14,6.87-2.1,14.58-4.21c7.71-2.1,18.23-5.05,23.28-6.45c5.05-1.4,9.26-2.52,9.4-2.38
		c0.28,0.42,2.24,7.57,2.1,7.85c-0.14,0.14-3.93,1.26-8.55,2.38c-13.32,3.51-33.94,9.26-42.35,11.64c-4.21,1.26-7.99,2.24-8.41,2.24
		C15.78,346.29,15.08,344.19,14.38,341.52z M476.59,345.73c-0.14-0.28,0.14-2.1,0.7-4.07l0.98-3.51h3.79c3.09,0,4.21-0.28,6.45-1.96
		c6.03-4.07,9.26-15.71,6.03-21.32c-2.66-4.49-9.82-6.17-12.76-2.8c-0.84,0.98-4.07,6.03-7.15,11.22
		c-6.45,11.08-7.71,12.76-11.5,14.86c-7.71,4.49-19.07,1.12-23.28-7.01c-4.49-8.55-0.98-26.64,6.59-33.52
		c4.77-4.35,10.1-6.17,15.85-5.47c5.05,0.7,5.33,0.84,3.93,4.91l-1.12,3.51l-3.37-0.28c-4.77-0.42-7.43,0.7-10.8,4.35
		c-5.47,6.03-7.71,18.09-4.35,22.72c1.96,2.8,4.77,4.07,8.27,4.07c2.8,0,3.23-0.28,5.89-3.09c1.54-1.68,5.19-7.01,7.99-11.92
		c5.47-9.54,8.13-12.62,12.34-14.16c5.33-2.1,13.04,0.28,17.67,5.47c4.35,4.77,5.61,10.38,3.93,17.53
		c-2.1,9.4-7.15,17.11-13.04,19.63C486.83,346.43,477.3,346.85,476.59,345.73z M147.18,344.05c-11.64-1.82-19.77-4.77-28.05-10.24
		c-24.4-15.85-34.92-46.14-25.52-74.32c2.52-7.85,7.57-16.13,13.74-23c3.51-3.79,8.55-7.71,25.94-20.19
		c3.93-2.8,9.54-6.87,12.48-8.98c2.94-2.1,8.41-6.03,12.06-8.55c3.79-2.66,9.12-6.59,12.06-8.69c2.94-2.1,8.55-6.17,12.48-8.98
		c3.93-2.8,8.98-6.45,11.22-7.99c2.24-1.54,12.06-8.69,21.88-15.71c9.82-7.01,22.58-16.13,28.33-20.33
		c6.17-4.49,10.8-7.29,11.36-7.15c1.82,0.7,22.16,15.85,21.88,16.41c-0.14,0.56-5.47,4.49-15.29,11.5
		c-3.23,2.24-8.83,6.31-12.48,8.98c-5.61,4.07-20.61,14.72-29.87,21.46c-1.54,1.12-7.15,5.05-12.48,8.98
		c-5.33,3.93-10.94,7.85-12.48,8.98c-1.54,1.12-7.15,5.05-12.48,8.98c-5.33,3.93-10.94,7.85-12.48,8.98
		c-1.54,1.12-6.73,4.77-11.64,8.27c-4.91,3.51-12.9,9.26-17.67,12.62c-11.22,7.99-15.29,12.06-18.51,18.65
		c-2.52,5.05-4.49,12.34-4.49,16.55s1.96,11.64,4.49,16.69c4.49,9.12,12.9,15.99,22.86,18.79c4.21,1.26,7.29,1.26,109.38,1.26
		s105.04,0,109.38-1.26c13.32-3.79,23.56-14.86,26.36-28.33c1.26-6.17,1.26-8.13,0-14.16c-1.12-5.47-2.8-9.68-5.61-13.74
		c-3.65-5.33-4.63-6.03-31.13-25.1c-10.8-7.71-21.46-15.43-32.67-23.56c-5.05-3.65-12.76-9.26-17.11-12.34l-7.85-5.61l2.38-1.68
		c12.06-8.69,20.9-14.72,21.18-14.72s3.09,1.96,6.31,4.35c3.23,2.38,9.54,6.87,13.88,10.1c4.35,3.23,11.64,8.27,15.99,11.5
		c4.35,3.23,11.64,8.41,16.13,11.64c4.49,3.23,11.92,8.69,16.55,11.92c11.5,8.27,17.95,15.43,22.86,25.1
		c8.13,16.13,9.12,36.04,2.24,52.87c-7.01,17.53-21.74,31.27-39.69,37.16c-10.24,3.37-7.43,3.23-119.9,3.23
		C195.84,344.33,148.02,344.19,147.18,344.05z M150.41,302.26c-6.87-1.12-13.46-6.31-16.55-12.76c-2.24-4.77-2.38-13.46-0.28-18.09
		c2.52-5.33,4.91-7.71,17.25-16.55c6.59-4.77,23.42-16.69,37.3-26.64c13.88-9.96,28.19-20.19,31.69-22.72
		c3.51-2.52,14.58-10.52,24.68-17.67c10.1-7.15,24.4-17.39,31.83-22.86l13.6-9.68l10.38,7.43c5.75,4.07,11.08,7.99,11.92,8.55
		l1.4,1.12l-8.83,6.31c-4.91,3.51-10.66,7.57-13.04,9.26c-2.24,1.68-5.33,3.79-6.73,4.77c-1.4,0.98-6.59,4.63-11.5,8.13
		c-4.91,3.51-10.1,7.15-11.5,8.13c-1.4,0.98-4.49,3.09-6.73,4.77c-2.24,1.68-20.33,14.44-39.97,28.47
		c-19.63,14.02-38.14,27.21-41.09,29.31l-5.33,3.93l42.35,0.14c23.28,0.14,61.42,0.14,84.7,0l42.35-0.14l-5.47-3.93
		c-2.94-2.24-16.55-11.92-30.15-21.6c-46.28-33.24-43.89-31.41-43.47-31.69c0.7-0.56,20.33-14.44,21.88-15.43
		c1.96-1.26,1.4-1.68,14.58,7.99c15.99,11.64,21.04,15.29,28.33,20.47c4.21,2.94,11.08,7.99,15.43,11.08
		c4.35,3.23,11.64,8.27,16.13,11.5c12.48,8.83,14.3,10.38,16.55,14.02c2.8,4.35,3.79,8.27,3.37,13.74
		c-0.56,8.55-6.03,16.27-13.88,19.35l-3.65,1.4l-102.37,0.14C199.35,302.68,151.95,302.54,150.41,302.26z M504.64,291.6l-2.66-0.28
		l0.14-3.65c0.14-1.96,0.42-8.41,0.84-14.16c0.42-5.75,0.7-12.34,0.7-14.44v-3.93l-4.91-0.42c-2.66-0.28-6.87-0.42-9.26-0.42
		c-4.35,0-4.35,0-4.49,1.82c0,0.98-0.42,8.41-0.84,16.41l-0.7,14.72l-3.79,0.14l-3.79,0.14l0.42-9.12
		c0.28-5.05,0.56-12.62,0.84-16.97l0.42-7.71l-3.51-0.28c-1.96-0.14-6.59-0.42-10.38-0.7l-6.87-0.28v2.8
		c0,4.49-1.26,28.47-1.68,31.41l-0.42,2.66h-3.65h-3.65l0.42-8.41c0.56-12.2,1.82-37.16,1.96-37.3c0,0,4.35,0.14,9.68,0.42
		c5.33,0.28,19.07,0.98,30.71,1.54c11.64,0.56,21.18,1.12,21.18,1.12c0.14,0.14-1.68,35.62-2.1,40.53c-0.28,3.79-0.56,4.63-1.4,4.49
		C507.73,291.88,506.04,291.74,504.64,291.6z M53.08,278.84c-7.43-2.8-27.35-10.38-43.89-16.55l-8.98-3.37v-4.91v-5.05l5.47-1.82
		c2.94-0.98,12.9-4.63,22.02-7.99s17.81-6.45,19.21-6.87c1.4-0.42,5.33-1.82,8.83-3.09l6.31-2.24v4.63v4.63l-5.33,1.82
		c-2.94,0.98-6.87,2.38-8.98,3.09l-3.65,1.26v12.2v12.2l8.83,3.23l8.83,3.23l0.14,4.21c0.14,3.23,0,4.21-0.7,4.21
		C60.8,281.78,57.15,280.52,53.08,278.84z M36.39,254.58c0-7.15-0.14-9.26-0.84-8.98c-0.42,0.14-6.17,2.1-12.62,4.35
		s-12.06,4.07-12.48,4.35c-0.56,0.28,23.42,9.54,25.1,9.68C36.25,263.97,36.39,261.73,36.39,254.58z M503.8,237.47
		c-1.54-10.66-2.24-15.43-2.24-15.43s-3.65,0.42-8.13,1.12c-4.35,0.7-12.9,1.96-18.93,2.8c-6.03,0.84-14.44,2.24-18.79,2.94
		s-7.99,1.12-8.13,1.12c-0.14-0.14-0.28-2.1-0.42-4.35l-0.14-4.07l5.19-0.84c8.13-1.26,34.64-5.19,41.23-6.31
		c3.23-0.56,6.17-1.12,6.31-1.26c0.14-0.14,0-2.66-0.42-5.61c-0.42-2.94-1.12-7.29-1.54-9.96c-0.42-2.52-0.56-4.77-0.42-4.91
		c0.14-0.14,1.82-0.42,3.79-0.42l3.51-0.28l1.4,9.26c0.7,5.05,2.38,16.13,3.65,24.54c1.26,8.41,2.24,15.29,2.1,15.43
		c-0.14,0.14-1.82,0.42-3.79,0.7l-3.65,0.56L503.8,237.47z M3.86,232.42c-1.96-0.28-3.65-0.7-3.65-0.7
		c-0.28-0.14,0.98-7.15,3.37-19.21c0.84-4.21,2.24-11.64,3.23-16.55c2.1-11.64,2.52-13.46,2.94-13.32c0.14,0,1.82,0.28,3.79,0.56
		l3.51,0.42l-0.42,2.1c-0.14,1.12-0.98,5.33-1.82,9.4c-0.7,4.07-1.4,7.71-1.54,8.27c-0.14,0.98-0.28,0.84,28.75,6.45
		c7.43,1.4,15.85,3.09,18.93,3.65l5.47,0.98l-0.84,3.79c-0.42,2.1-0.98,3.93-1.12,4.07c-0.14,0.14-6.03-0.7-13.04-2.1
		c-32.82-6.17-35.34-6.73-38-7.15l-2.24-0.28l-1.96,10.1l-1.96,10.1L3.86,232.42z M449.11,201.71c-5.47-1.96-9.68-6.17-12.9-12.76
		c-2.8-5.75-3.93-12.34-2.94-17.39c1.68-8.13,6.17-12.48,17.81-17.11c10.38-4.07,21.74-8.41,28.89-10.94l5.89-2.24l0.98,2.38
		c1.96,4.49,1.82,5.61-0.14,6.45c-0.98,0.42-7.99,3.09-15.57,5.89c-22.86,8.55-22.44,8.41-25.8,11.5c-2.8,2.52-4.21,5.89-4.21,10.1
		c0,6.31,4.21,13.32,9.26,15.57c5.05,2.24,8.27,1.68,27.49-5.75c15.57-6.03,21.74-8.27,22.16-8.27c0.7,0,3.09,7.57,2.38,7.99
		c-0.28,0.14-3.51,1.4-7.15,2.8c-3.65,1.4-11.64,4.35-17.81,6.73c-6.17,2.38-12.48,4.63-14.02,5.19
		C459.77,202.83,452.33,202.83,449.11,201.71z M41.3,187.83c-15.85-5.33-28.89-9.68-29.03-9.82c-0.28-0.14,1.82-6.87,2.52-7.43
		c0.28-0.28,13.6,3.79,29.59,9.12l29.03,9.68l-1.26,4.07c-0.7,2.24-1.54,4.07-1.68,4.07S57.15,193.01,41.3,187.83z M54.77,174.64
		c-13.18-3.79-23.98-14.02-26.5-25.1c-2.94-12.62,4.77-27.91,16.97-33.8c4.21-1.96,4.91-2.1,11.22-2.1c5.33,0,7.57,0.28,10.94,1.4
		c12.34,4.07,22.44,14.02,24.82,24.54c0.84,3.51,0.84,8.27,0,11.92c-1.68,7.71-9.12,17.81-15.29,21.04
		C70.33,175.91,61.92,176.75,54.77,174.64z M73,165.25c9.82-4.91,14.3-16.83,9.96-26.64c-4.49-10.24-19.77-18.37-30.43-16.41
		c-6.87,1.26-11.5,5.05-14.86,11.92c-4.77,9.68-0.84,21.04,9.68,27.77C56.45,167.63,65.84,168.89,73,165.25z M417.98,149.54
		c-1.12-1.82-1.82-3.37-1.68-3.65c0.14-0.14,4.49-2.94,9.54-6.31c29.45-19.07,35.06-22.86,35.06-23.28c0-0.28-2.52-4.35-5.47-8.98
		c-3.09-4.63-5.19-8.55-4.77-8.69c0.42-0.14,1.68-0.98,2.94-1.82s2.52-1.54,2.8-1.54s2.1,2.52,4.07,5.61
		c1.96,3.09,6.03,9.26,8.98,13.88c10.94,16.69,13.74,21.04,14.16,21.88c0.42,0.7-4.35,4.07-5.89,4.07c-0.28,0-3.09-3.79-6.03-8.27
		c-3.51-5.47-5.61-8.13-6.17-7.99c-0.42,0.14-3.23,1.82-6.03,3.79c-2.8,1.82-7.43,4.77-9.96,6.45c-2.66,1.68-8.55,5.47-13.18,8.55
		c-13.46,8.69-15.01,9.68-15.57,9.68C420.22,152.77,419.1,151.36,417.98,149.54z M100.2,130.33c-1.4-1.54-10.94-11.22-21.18-21.74
		C68.79,98.07,60.37,89.38,60.23,89.1c-0.14-0.28,1.4-1.96,3.23-3.79l3.51-3.37l28.05,7.01c15.43,3.93,28.19,7.01,28.33,6.87
		c0.14-0.14-4.35-4.91-9.96-10.66C97.82,69.19,89.96,60.91,89.96,60.35c0-0.28,1.26-1.54,2.8-2.94l2.8-2.52l10.94,11.22
		c17.81,18.23,29.45,30.29,30.85,31.83c1.26,1.4,1.26,1.4-1.26,4.07c-1.4,1.4-2.94,2.8-3.65,3.23c-0.84,0.42-5.61-0.42-16.69-3.23
		c-8.55-2.1-20.9-5.19-27.63-6.73c-6.59-1.68-12.48-3.09-13.18-3.37c-0.56-0.28,2.52,3.23,6.87,7.71
		c4.35,4.49,9.26,9.54,10.94,11.22c1.54,1.68,5.89,6.03,9.54,9.82l6.73,6.87l-2.8,2.94c-1.54,1.54-2.94,2.8-3.23,2.8
		C102.87,132.99,101.6,131.73,100.2,130.33z M402.27,128.79c-2.94-3.51-3.09-3.93-1.68-5.19c16.41-14.16,24.82-21.46,33.94-29.45
		c12.2-10.66,11.22-10.24,14.86-5.75c1.96,2.38,1.96,2.52,0.7,3.51c-3.65,3.23-29.03,25.24-34.36,29.73
		c-2.1,1.82-4.07,3.51-4.49,3.93c-2.24,2.1-6.45,5.47-6.73,5.33C404.37,131.03,403.39,130.05,402.27,128.79z M383.2,109.57
		c-1.54-1.26-2.8-2.38-2.94-2.52c-0.28-0.14,4.35-5.75,7.29-8.83c0.42-0.42,2.24-2.52,4.21-4.77c12.48-14.3,18.23-20.9,19.35-22.02
		c0.7-0.7,1.96-2.24,2.94-3.37l1.68-2.1L413.49,64c-5.33-4.77-11.78-10.38-12.48-10.94c-0.7-0.56-0.28-1.26,1.68-3.51
		c2.24-2.66,2.52-2.8,3.65-1.82c0.7,0.56,9.12,7.99,18.93,16.55l17.81,15.57l-1.96,2.52c-1.12,1.4-2.24,2.66-2.52,2.8
		c-0.28,0.14-3.79-2.52-7.71-5.89c-3.93-3.37-7.43-6.45-7.85-6.73c-0.42-0.28-7.29,7.01-18.37,19.63
		c-9.68,11.08-17.81,20.05-18.09,20.05C386.14,111.96,384.74,110.84,383.2,109.57z M139.19,97.09c-0.14-0.42-0.7-4.35-1.26-8.83
		c-0.56-4.35-1.4-10.8-1.96-14.3s-1.54-10.8-2.24-16.27c-0.7-5.47-1.68-12.9-2.24-16.55c-0.56-3.65-0.98-7.15-0.98-7.71
		s1.54-1.82,4.07-3.09l4.07-2.1l2.1,1.82c1.12,0.98,3.37,2.8,4.77,4.07c1.4,1.26,6.45,5.75,11.22,9.96
		c4.77,4.21,10.24,9.12,12.2,10.8c3.65,3.37,12.06,10.8,16.13,14.44c1.26,1.12,2.38,2.24,2.38,2.52c0,0.28-1.68,1.4-3.93,2.52
		l-3.79,2.1l-7.01-6.45l-7.01-6.45l-4.63,2.52c-2.52,1.4-7.29,3.93-10.38,5.61c-3.23,1.68-5.89,3.23-6.17,3.51
		c-0.28,0.28-0.14,2.1,0.28,4.21c0.28,2.1,0.98,6.31,1.4,9.26l0.7,5.47l-3.79,1.96C140.59,97.23,139.47,97.65,139.19,97.09z
		 M151.53,62.31l7.99-4.21l-4.07-3.93c-9.68-9.12-16.13-15.01-16.41-14.86c-0.14,0.14,0.42,4.77,2.66,20.19
		c0.56,3.37,0.84,6.31,0.98,6.59C142.69,66.94,143.25,66.8,151.53,62.31z M362.02,93.17c-6.73-1.68-15.29-6.59-19.07-11.22
		c-4.77-5.61-6.03-14.44-3.09-20.9l1.54-3.37l3.37,1.96c1.82,1.12,3.37,1.96,3.51,2.1c0.14,0.14-0.28,1.26-0.84,2.52
		c-3.09,7.43,1.26,15.01,11.22,19.63c7.99,3.79,13.74,2.8,16.69-2.66c2.8-5.47,1.26-8.27-10.38-19.35
		c-10.8-10.24-12.9-14.44-10.38-21.6c2.24-6.31,8.69-11.36,15.57-11.92c9.4-0.84,22.86,7.71,26.22,16.55c1.68,4.63,1.68,7.01,0,12.2
		l-1.4,4.21l-3.23-1.96c-3.51-1.96-3.37-1.96-2.52-6.87c1.26-7.71-7.85-16.41-17.11-16.41c-4.49,0-6.59,1.4-8.69,5.47
		c-1.4,2.8-1.4,3.09-0.42,5.47c0.7,1.68,2.8,4.21,6.31,7.43c14.3,13.04,15.99,15.29,15.99,21.88c0,7.29-5.19,14.58-12.06,16.55
		C369.17,94.29,366.37,94.29,362.02,93.17z M324.02,73.11l-4.07-0.98l-3.23-10.24c-1.82-5.61-3.51-10.94-3.79-11.92
		c-0.28-0.84-1.4-4.63-2.52-8.27c-1.12-3.65-2.8-9.26-3.79-12.48c-0.98-3.23-2.24-7.43-2.94-9.4c-0.56-1.96-1.26-3.65-1.26-3.51
		c-0.28,0.28-5.61,20.05-9.54,35.2c-1.68,6.31-3.09,11.64-3.23,11.92c-0.28,0.28-7.01-1.12-7.85-1.82
		c-0.14-0.14,3.65-15.15,6.31-24.54c0.28-1.26,2.52-9.4,4.91-18.23c2.38-8.83,4.49-16.13,4.63-16.41c0.7-0.7,9.12,1.68,9.68,2.8
		c0.28,0.56,1.12,2.94,1.82,5.47c0.7,2.38,1.82,6.31,2.52,8.55c3.51,11.22,6.03,19.77,6.87,22.3c2.66,9.26,5.47,18.09,5.61,18.23
		c0.28,0.28,4.63-16.13,10.38-38.14c1.26-5.05,2.52-9.4,2.52-9.4c0.14-0.14,1.4,0.28,2.94,0.84s3.37,0.98,4.07,0.98
		c0.84,0,1.12,0.28,0.84,1.12c-0.14,0.56-2.24,8.41-4.63,17.39c-8.69,33.1-10.94,41.09-11.64,41.23
		C328.37,74.09,326.26,73.67,324.02,73.11z M188.55,71.57c-0.84-2.66-15.15-56.37-15.29-57.5c-0.14-1.12,0.56-1.54,3.79-2.38
		c3.65-1.12,4.07-1.12,4.35-0.14c0.14,0.56,1.54,5.61,2.94,11.22c3.51,13.46,9.54,35.9,10.24,38.42l0.56,1.96l14.86-4.07
		c8.13-2.24,15.01-3.93,15.15-3.65c0.28,0.28,1.82,5.75,1.96,6.73c0,0.28-2.1,0.84-4.63,1.54c-2.52,0.56-5.47,1.4-6.59,1.68
		c-3.93,1.12-26.08,7.01-26.64,7.01C189.11,72.41,188.69,71.99,188.55,71.57z M265.68,61.05c0-1.12,0.7-10.52,2.8-40.11
		c0.56-7.43,1.12-15.15,1.4-17.11l0.42-3.79l3.93,0.42c2.1,0.28,3.93,0.56,4.07,0.7c0.14,0.14-0.14,6.31-0.7,13.88
		s-1.4,20.33-1.96,28.33c-0.56,8.13-1.12,15.57-1.26,16.83l-0.28,2.1h-4.07C266.24,62.17,265.68,62.03,265.68,61.05z"/>
</g>
</svg>
